<svg width="30" height="30" viewBox="0 0 30 30" fill="none" xmlns="http://www.w3.org/2000/svg">
  <path d="M27.2569 12.5519H26.25V12.5H15V17.5H22.0644C21.0338 20.4106 18.2644 22.5 15 22.5C10.8581 22.5 7.5 19.1419 7.5 15C7.5 10.8581 10.8581 7.5 15 7.5C16.9119 7.5 18.6513 8.22125 19.9756 9.39937L23.5113 5.86375C21.2788 3.78312 18.2925 2.5 15 2.5C8.09688 2.5 2.5 8.09688 2.5 15C2.5 21.9031 8.09688 27.5 15 27.5C21.9031 27.5 27.5 21.9031 27.5 15C27.5 14.1619 27.4138 13.3438 27.2569 12.5519Z" fill="#FFC107"/>
  <path d="M3.94165 9.18188L8.04853 12.1938C9.15978 9.4425 11.851 7.5 15.0004 7.5C16.9123 7.5 18.6517 8.22125 19.976 9.39938L23.5117 5.86375C21.2792 3.78313 18.2929 2.5 15.0004 2.5C10.1992 2.5 6.0354 5.21063 3.94165 9.18188Z" fill="#FF3D00"/>
  <path d="M15.0001 27.5004C18.2289 27.5004 21.1626 26.2647 23.3808 24.2554L19.512 20.9816C18.2148 21.9681 16.6298 22.5017 15.0001 22.5004C11.7489 22.5004 8.98826 20.4272 7.94826 17.5341L3.87201 20.6747C5.94076 24.7229 10.142 27.5004 15.0001 27.5004Z" fill="#4CAF50"/>
  <path d="M27.2569 12.5519H26.25V12.5H15V17.5H22.0644C21.5714 18.8853 20.6834 20.0958 19.51 20.9819L19.5119 20.9806L23.3807 24.2544C23.1069 24.5031 27.5 21.25 27.5 15C27.5 14.1619 27.4138 13.3438 27.2569 12.5519Z" fill="#1976D2"/>
</svg>
