<?xml version="1.0" encoding="utf-8"?>
<!-- Generator: Adobe Illustrator 26.0.0, SVG Export Plug-In . SVG Version: 6.00 Build 0)  -->
<svg version="1.1" id="Layer_1" xmlns="http://www.w3.org/2000/svg" xmlns:xlink="http://www.w3.org/1999/xlink" x="0px" y="0px"
	 viewBox="0 0 300 300" style="enable-background:new 0 0 300 300;" xml:space="preserve">
<style type="text/css">
	.st0{fill:#5089C6;}
</style>
<ellipse class="st0" cx="224.1" cy="52.7" rx="29.2" ry="31"/>
<path class="st0" d="M74.4,249.3c0,0,103.5,2.5,113.2-46.2c1.4-6.8-0.9-13.8-4.9-19.3c-11.5-15.7-39.8-49.2-74.1-59.4
	c0,0-28.4-4.1-18.6,26.9c0,0,3.7,10.1,11.5,14.8L0.3,276.3c-0.8,0.9,0,2.4,1.1,1.9c15.8-7.9,66.9-35,135.4-87.2
	c0,0,23,7.6,14.9,15.1L74.4,249.3z"/>
<ellipse transform="matrix(0.7461 -0.6659 0.6659 0.7461 -27.2902 138.3918)" class="st0" cx="167.8" cy="105" rx="42.1" ry="12.1"/>
<path class="st0" d="M69.2,120.2c0,0,18-117.1,69.3-43.6c0,0,19,16.2,25.1,3.2s7.1-19.5-8.5-39.3S46.1-12.8,69.2,120.2z"/>
<path class="st0" d="M300,108c0,0-58.5,101.1-79.7,12.5c0,0-11.8-22.7-22.1-13.1c-10.3,9.5-13.6,15.1-6.2,39.8
	C199.4,171.7,273.8,240.4,300,108z"/>
</svg>
