<?xml version="1.0" encoding="utf-8"?>
<!-- Generator: Adobe Illustrator 26.0.0, SVG Export Plug-In . SVG Version: 6.00 Build 0)  -->
<svg version="1.1" id="Layer_1" xmlns="http://www.w3.org/2000/svg" xmlns:xlink="http://www.w3.org/1999/xlink" x="0px" y="0px"
	 viewBox="0 0 400 80" style="enable-background:new 0 0 400 80;" xml:space="preserve">
<style type="text/css">
	.st0{fill:#5089C6;}
</style>
<g>
	<path class="st0" d="M139.3,46.7c0,2.6-0.6,4.9-1.9,6.9c-1.3,2.1-3.1,3.7-5.6,4.8c-2.5,1.2-5.4,1.7-8.7,1.7c-4,0-7.4-0.8-10-2.4
		c-1.9-1.1-3.4-2.7-4.5-4.6s-1.7-3.8-1.7-5.6c0-1,0.3-1.9,1-2.7s1.6-1.1,2.7-1.1c0.9,0,1.6,0.3,2.2,0.9c0.6,0.6,1.1,1.4,1.6,2.6
		c0.5,1.4,1.1,2.5,1.7,3.4s1.5,1.7,2.6,2.3s2.5,0.9,4.3,0.9c2.5,0,4.5-0.6,6-1.8s2.3-2.7,2.3-4.5c0-1.4-0.4-2.6-1.2-3.4
		s-1.9-1.6-3.2-2c-1.3-0.5-3.1-1-5.3-1.5c-2.9-0.7-5.4-1.6-7.4-2.5s-3.6-2.3-4.7-3.9s-1.7-3.7-1.7-6.2c0-2.3,0.6-4.4,1.8-6.2
		c1.2-1.8,3-3.2,5.3-4.2s5.1-1.5,8.2-1.5c2.5,0,4.7,0.3,6.5,1c1.8,0.7,3.4,1.5,4.6,2.6c1.2,1.1,2.1,2.2,2.7,3.4
		c0.6,1.2,0.8,2.3,0.8,3.5c0,1-0.3,2-1,2.8s-1.6,1.2-2.6,1.2s-1.7-0.2-2.2-0.7s-1-1.3-1.6-2.4c-0.7-1.6-1.6-2.9-2.7-3.8
		c-1-0.9-2.7-1.4-5-1.4c-2.1,0-3.9,0.5-5.2,1.5c-1.3,1-2,2.2-2,3.5c0,0.9,0.2,1.6,0.7,2.2s1.1,1.2,1.8,1.6c0.8,0.4,1.6,0.8,2.4,1
		c0.8,0.3,2.1,0.6,4,1.1c2.3,0.6,4.4,1.2,6.3,1.9s3.5,1.5,4.8,2.5s2.3,2.2,3.1,3.7C138.9,42.7,139.3,44.5,139.3,46.7z"/>
	<path class="st0" d="M162.2,42.9h-7.6V55c0,1.7-0.4,3-1.2,3.9s-1.8,1.3-3,1.3s-2.3-0.4-3-1.3c-0.8-0.9-1.1-2.2-1.1-3.9V22.1
		c0-1.9,0.4-3.3,1.3-4.1s2.2-1.2,4-1.2h10.6c3.1,0,5.6,0.3,7.3,0.8s3.1,1.3,4.3,2.4s2.1,2.5,2.8,4.1c0.6,1.6,1,3.5,1,5.5
		c0,4.3-1.3,7.6-3.9,9.9C171.1,41.7,167.3,42.9,162.2,42.9z M160.2,23.3h-5.6v13h5.6c2,0,3.6-0.2,4.9-0.6c1.3-0.4,2.3-1.1,3-2.1
		s1-2.2,1-3.8c0-1.9-0.5-3.4-1.6-4.6C166.4,24,163.9,23.3,160.2,23.3z"/>
	<path class="st0" d="M202.5,16.1c4.2,0,7.9,0.9,10.9,2.7c3,1.8,5.4,4.3,6.9,7.6c1.6,3.3,2.3,7.2,2.3,11.6c0,3.3-0.4,6.3-1.3,9
		c-0.9,2.7-2.1,5-3.9,7c-1.7,2-3.8,3.5-6.3,4.5s-5.4,1.6-8.6,1.6c-3.2,0-6.1-0.5-8.6-1.6s-4.6-2.6-6.3-4.5c-1.7-2-3-4.3-3.8-7.1
		c-0.9-2.8-1.3-5.7-1.3-8.9c0-3.3,0.5-6.3,1.4-9s2.2-5.1,3.9-7s3.8-3.4,6.3-4.4C196.6,16.6,199.4,16.1,202.5,16.1z M214.3,38
		c0-3.1-0.5-5.8-1.5-8.1s-2.4-4-4.2-5.2c-1.8-1.2-3.9-1.8-6.2-1.8c-1.7,0-3.2,0.3-4.6,1c-1.4,0.6-2.6,1.6-3.6,2.8
		c-1,1.2-1.8,2.8-2.4,4.8c-0.6,1.9-0.9,4.1-0.9,6.5s0.3,4.6,0.9,6.6c0.6,2,1.4,3.6,2.5,4.9c1.1,1.3,2.3,2.3,3.7,2.9
		c1.4,0.6,2.9,1,4.6,1c2.1,0,4.1-0.6,5.9-1.7s3.2-2.8,4.2-5.1S214.3,41.4,214.3,38z"/>
	<path class="st0" d="M241,41.2h-2.9v13.7c0,1.8-0.4,3.1-1.1,4s-1.8,1.3-3,1.3c-1.3,0-2.3-0.4-3.1-1.3c-0.7-0.9-1.1-2.2-1.1-3.9
		V22.1c0-1.9,0.4-3.2,1.2-4s2.1-1.2,3.9-1.2h13.5c1.9,0,3.5,0.1,4.8,0.2c1.3,0.2,2.5,0.5,3.6,1c1.3,0.6,2.4,1.4,3.4,2.4
		s1.7,2.3,2.2,3.6c0.5,1.4,0.8,2.9,0.8,4.4c0,3.2-0.9,5.7-2.6,7.6c-1.7,1.9-4.3,3.2-7.8,4c1.5,0.8,2.9,2,4.2,3.6
		c1.3,1.6,2.5,3.3,3.6,5.1s1.9,3.4,2.5,4.9c0.6,1.4,0.9,2.4,0.9,3s-0.2,1.1-0.5,1.7c-0.3,0.6-0.8,1-1.4,1.3s-1.3,0.5-2.1,0.5
		c-0.9,0-1.7-0.2-2.3-0.7s-1.2-1-1.6-1.7c-0.5-0.7-1.1-1.7-1.9-3.1l-3.3-5.8c-1.2-2.1-2.3-3.7-3.2-4.8s-1.9-1.9-2.9-2.3
		C243.7,41.4,242.4,41.2,241,41.2z M245.7,23.3H238V35h7.4c2,0,3.7-0.2,5-0.5c1.4-0.4,2.4-1,3.1-1.8s1.1-2,1.1-3.6
		c0-1.2-0.3-2.2-0.9-3.1c-0.6-0.9-1.4-1.6-2.4-2C250.5,23.5,248.6,23.3,245.7,23.3z"/>
	<path class="st0" d="M294.8,24h-9.1v31c0,1.8-0.4,3.1-1.1,4c-0.8,0.9-1.8,1.3-3,1.3s-2.2-0.4-3-1.3c-0.8-0.9-1.2-2.2-1.2-4V24h-9.1
		c-1.4,0-2.5-0.3-3.2-1c-0.7-0.6-1-1.5-1-2.6s0.4-2,1.1-2.6s1.8-1,3.1-1h26.4c1.4,0,2.5,0.3,3.2,1s1,1.5,1,2.6s-0.4,1.9-1.1,2.6
		C297.2,23.6,296.2,24,294.8,24z"/>
	<path class="st0" d="M330.9,23.5h-18.7V34h17.2c1.3,0,2.2,0.3,2.8,0.9c0.6,0.6,0.9,1.4,0.9,2.3s-0.3,1.8-0.9,2.4
		c-0.6,0.6-1.6,0.9-2.9,0.9h-17.2v12.1h19.3c1.3,0,2.3,0.3,2.9,0.9c0.7,0.6,1,1.5,1,2.5s-0.3,1.8-1,2.5c-0.7,0.6-1.6,0.9-2.9,0.9
		H309c-1.8,0-3.1-0.4-3.9-1.2s-1.2-2.2-1.2-4v-32c0-1.2,0.2-2.3,0.5-3c0.4-0.8,0.9-1.4,1.7-1.7c0.8-0.4,1.7-0.5,2.9-0.5h21.9
		c1.3,0,2.3,0.3,2.9,0.9s1,1.4,1,2.4s-0.3,1.8-1,2.4C333.2,23.2,332.2,23.5,330.9,23.5z"/>
	<path class="st0" d="M347.2,16.8H358c2.8,0,5.2,0.3,7.2,0.8s3.8,1.6,5.5,3.1c4.3,3.8,6.4,9.6,6.4,17.3c0,2.6-0.2,4.9-0.6,7
		s-1.1,4-2,5.7s-2,3.2-3.4,4.5c-1.1,1-2.3,1.9-3.6,2.5c-1.3,0.6-2.7,1.1-4.2,1.3s-3.2,0.4-5.1,0.4h-10.8c-1.5,0-2.6-0.2-3.4-0.7
		s-1.3-1.1-1.5-2s-0.3-2-0.3-3.4V22.1c0-1.9,0.4-3.2,1.2-4C344.2,17.3,345.5,16.8,347.2,16.8z M350.5,23.7v28.9h6.3
		c1.4,0,2.5,0,3.2-0.1c0.8-0.1,1.6-0.3,2.4-0.6s1.6-0.7,2.2-1.3c2.8-2.4,4.2-6.6,4.2-12.6c0-4.2-0.6-7.4-1.8-9.4
		c-1.2-2.1-2.7-3.4-4.5-4s-4-0.9-6.5-0.9H350.5z"/>
</g>
<ellipse class="st0" cx="76.8" cy="17.2" rx="6.8" ry="7.2"/>
<path class="st0" d="M41.8,63.2c0,0,24.2,0.6,26.4-10.8c0.3-1.6-0.2-3.2-1.1-4.5c-2.7-3.7-9.3-11.5-17.3-13.9c0,0-6.6-1-4.3,6.3
	c0,0,0.9,2.4,2.7,3.5L24.6,69.5c-0.2,0.2,0,0.6,0.3,0.4c3.7-1.8,15.6-8.2,31.6-20.4c0,0,5.4,1.8,3.5,3.5L41.8,63.2z"/>
<ellipse transform="matrix(0.7452 -0.6668 0.6668 0.7452 -3.4691 49.9415)" class="st0" cx="63.6" cy="29.5" rx="9.8" ry="2.8"/>
<path class="st0" d="M40.6,33c0,0,4.2-27.4,16.2-10.2c0,0,4.4,3.8,5.9,0.8c1.5-3,1.7-4.6-2-9.2S35.2,1.9,40.6,33z"/>
<path class="st0" d="M94.5,30.2c0,0-13.7,23.6-18.6,2.9c0,0-2.8-5.3-5.2-3.1c-2.4,2.2-3.2,3.5-1.4,9.3C71,45.1,88.4,61.1,94.5,30.2z
	"/>
</svg>
